<svg width="21" height="20" viewBox="0 0 21 20" fill="none" xmlns="http://www.w3.org/2000/svg">
<path d="M5.32018 8.56001L6.38018 7.50001L5.32018 6.44001L6.38018 5.38001L8.50018 7.50001L6.38018 9.62001L5.32018 8.56001ZM2.50018 7.00001C2.53018 7.00001 2.55018 7.01001 2.58018 7.01001C3.17667 5.53042 4.2018 4.2629 5.52394 3.37018C6.84608 2.47747 8.40487 2.00033 10.0002 2.00001C12.1902 2.00001 14.1602 2.88001 15.6102 4.30001C15.7602 3.70001 16.0602 3.01001 16.4202 2.34001C14.6202 0.825525 12.3425 -0.00337361 9.99018 1.03201e-05C5.11018 1.03201e-05 1.05018 3.51001 0.180176 8.14001C0.740176 7.44001 1.59018 7.00001 2.50018 7.00001ZM19.0002 8.50001C18.5802 8.50001 18.1802 8.41001 17.8102 8.28001C17.9302 8.83001 18.0002 9.41001 18.0002 10C18.0002 14.42 14.4202 18 10.0002 18C6.64018 18 3.77018 15.93 2.58018 12.99C2.55018 12.99 2.53018 13 2.50018 13C1.98018 13 1.46018 12.86 1.00018 12.6C0.680176 12.42 0.410176 12.18 0.180176 11.9C1.07018 16.51 5.11018 20 9.98018 20C15.5202 20 20.0002 15.52 20.0002 10C20.0002 9.45001 19.9402 8.91001 19.8602 8.38001C19.5796 8.45555 19.2907 8.49586 19.0002 8.50001ZM19.0002 1.00001C19.0002 1.00001 17.0002 3.90001 17.0002 5.00001C17.0002 6.10001 17.9002 7.00001 19.0002 7.00001C20.1002 7.00001 21.0002 6.10001 21.0002 5.00001C21.0002 3.90001 19.0002 1.00001 19.0002 1.00001ZM13.6202 5.38001L11.5002 7.50001L13.6202 9.62001L14.6802 8.56001L13.6202 7.50001L14.6802 6.44001L13.6202 5.38001ZM6.56018 15C7.25018 13.81 8.53018 13 10.0002 13C11.4702 13 12.7502 13.81 13.4402 15H15.1202C14.3202 12.95 12.3302 11.5 10.0002 11.5C9.13018 11.5 8.30017 11.7 7.57018 12.07L3.99018 10C3.99018 9.48001 3.73018 8.98001 3.25018 8.71001C2.53018 8.30001 1.62018 8.54001 1.20018 9.26001C0.790176 9.98001 1.03018 10.89 1.75018 11.31C2.23018 11.59 2.80018 11.56 3.24018 11.31L6.21018 13.03C5.64018 13.56 5.18018 14.24 4.88018 15H6.56018Z" fill="#343536"/>
</svg>
