<svg width="18" height="18" viewBox="0 0 18 18" fill="none" xmlns="http://www.w3.org/2000/svg">
<path d="M17.9998 16.57L16.5728 17.998L10.1308 11.556L11.5608 10.128L17.9998 16.57ZM10.1198 7.42701e-06C7.53982 7.42701e-06 4.95982 0.980007 2.97982 2.95001L2.96982 2.96001C-0.980176 6.91001 -0.980176 13.32 2.96982 17.27L17.2698 2.96001C16.3316 2.02021 15.217 1.27496 13.99 0.767001C12.763 0.259047 11.4478 -0.00160408 10.1198 7.42701e-06ZM3.13982 14.27C2.53245 13.253 2.15664 12.1146 2.03911 10.9359C1.92158 9.75711 2.06522 8.56694 2.45982 7.45001C2.64982 9.36001 3.34982 11.24 4.52982 12.89L3.13982 14.27ZM5.97982 11.43C4.62982 9.38001 4.11982 6.93001 4.59982 4.60001C5.17982 4.48001 5.75982 4.42001 6.34982 4.42001C8.14983 4.42001 9.89983 4.97001 11.4298 5.98001L5.97982 11.43ZM7.44982 2.46001C8.56676 2.06541 9.75693 1.92176 10.9357 2.03929C12.1144 2.15682 13.2528 2.53263 14.2698 3.14001L12.8798 4.53001C11.2823 3.37637 9.40987 2.66256 7.44982 2.46001Z" fill="currentColor"/>
</svg>
